<?xml version="1.0" encoding="utf-8"?>
<!-- Generator: Adobe Illustrator 21.1.0, SVG Export Plug-In . SVG Version: 6.00 Build 0)  -->
<svg version="1.1" id="Layer_1" xmlns="http://www.w3.org/2000/svg" xmlns:xlink="http://www.w3.org/1999/xlink" x="0px" y="0px"
	 viewBox="0 0 124 155" style="enable-background:new 0 0 124 155;" xml:space="preserve">
<style type="text/css">
	.st0{fill:#BBBDBF;}
</style>
<g>
	<path class="st0" d="M18.8,152.4l-1-2.6h-6.2l-1,2.6H7.5l5.8-13.3h3.1l5.7,13.3H18.8z M12.6,147.4h4.2l-2.1-5.2L12.6,147.4z"/>
	<path class="st0" d="M32.6,139.1h2.8v13.3h-2.7l-6.4-8.6v8.6h-2.9v-13.3h2.7l6.5,8.6V139.1z"/>
	<path class="st0" d="M48.2,152.4l-1-2.6H41l-1,2.6h-3.1l5.8-13.3h3.1l5.7,13.3H48.2z M42,147.4h4.2l-2.1-5.2L42,147.4z"/>
	<path class="st0" d="M52.8,139.1h3v10.7h5.7v2.6h-8.7V139.1z"/>
	<path class="st0" d="M74.6,139.1l-4.8,9v4.3h-3v-4.2l-4.9-9.1h3l3.4,6l3.3-6H74.6z"/>
	<path class="st0" d="M74.7,139.1h11.1v2.5h-4.1v10.8h-3v-10.8h-4V139.1z"/>
	<path class="st0" d="M87.4,139.1h3v13.3h-3V139.1z"/>
	<path class="st0" d="M101.4,142c-0.6-0.3-1.2-0.5-1.9-0.5c-0.7,0-1.4,0.2-2.1,0.6c-0.6,0.4-1.1,0.9-1.5,1.5
		c-0.4,0.6-0.5,1.3-0.5,2.1c0,0.8,0.2,1.5,0.5,2.1c0.4,0.6,0.8,1.1,1.5,1.5c0.6,0.4,1.3,0.6,2.1,0.6c0.6,0,1.2-0.1,1.8-0.4
		c0.6-0.3,1.2-0.7,1.6-1.1l1.8,1.9c-0.7,0.7-1.5,1.3-2.5,1.7c-1,0.4-1.9,0.6-2.9,0.6c-1.3,0-2.5-0.3-3.6-0.9
		c-1.1-0.6-1.9-1.4-2.5-2.5c-0.6-1.1-0.9-2.2-0.9-3.5c0-1.3,0.3-2.4,0.9-3.5c0.6-1,1.5-1.9,2.6-2.5c1.1-0.6,2.3-0.9,3.6-0.9
		c1,0,1.9,0.2,2.8,0.6c0.9,0.4,1.7,0.9,2.4,1.6l-1.7,2.1C102.5,142.7,102,142.3,101.4,142z"/>
	<path class="st0" d="M113.1,141.8c-0.8-0.2-1.4-0.4-2-0.4c-0.5,0-0.9,0.1-1.2,0.3c-0.3,0.2-0.5,0.5-0.5,0.8c0,0.5,0.2,0.8,0.7,1.1
		c0.4,0.2,1.1,0.5,2,0.8s1.7,0.5,2.3,0.8c0.6,0.3,1.1,0.7,1.5,1.2c0.4,0.5,0.6,1.2,0.6,2.1c0,0.8-0.2,1.6-0.7,2.2
		c-0.5,0.6-1.1,1.1-1.9,1.4c-0.8,0.3-1.7,0.5-2.7,0.5c-1.1,0-2.1-0.2-3.2-0.6c-1-0.4-1.9-0.9-2.7-1.6l1.2-2.5
		c0.7,0.6,1.4,1.1,2.3,1.5s1.7,0.6,2.4,0.6c0.6,0,1.1-0.1,1.5-0.3c0.3-0.2,0.5-0.6,0.5-1c0-0.3-0.1-0.6-0.4-0.8
		c-0.2-0.2-0.5-0.4-0.9-0.5c-0.4-0.1-0.9-0.3-1.5-0.5c-0.9-0.3-1.7-0.5-2.2-0.8c-0.6-0.3-1.1-0.6-1.5-1.2s-0.6-1.2-0.6-2.1
		c0-0.8,0.2-1.5,0.6-2.1s1-1.1,1.8-1.4c0.8-0.3,1.7-0.5,2.7-0.5c0.9,0,1.8,0.1,2.7,0.4s1.7,0.6,2.4,1.1l-1.2,2.5
		C114.6,142.4,113.9,142.1,113.1,141.8z"/>
</g>
<g>
	<path class="st0" d="M108.9,79.6H15.1C8.1,79.6,2.5,73.9,2.5,67V15c0-6.9,5.7-12.6,12.6-12.6h93.8c6.9,0,12.6,5.7,12.6,12.6V67
		C121.5,73.9,115.9,79.6,108.9,79.6z M15.1,7.4c-4.2,0-7.6,3.4-7.6,7.6V67c0,4.2,3.4,7.6,7.6,7.6h93.8c4.2,0,7.6-3.4,7.6-7.6V15
		c0-4.2-3.4-7.6-7.6-7.6H15.1z"/>
	<circle class="st0" cx="26.5" cy="62.2" r="5.4"/>
	<circle class="st0" cx="96.2" cy="22" r="5.4"/>
	<path class="st0" d="M50.4,35.8l-21,21c1.1,0.5,2.1,1.5,2.6,2.6l20.7-20.7C51.6,38.1,50.8,37,50.4,35.8z"/>
	<circle class="st0" cx="55.5" cy="34.2" r="4.4"/>
	<circle class="st0" cx="70.3" cy="48.7" r="4.4"/>
	<g>
		<path class="st0" d="M68.3,43.9L60.5,36c-0.4,1.2-1.3,2.2-2.4,2.8l7.5,7.5C66.2,45.2,67.1,44.4,68.3,43.9z"/>
		<path class="st0" d="M74.9,45.9l18.5-18.5c-1.1-0.5-2.1-1.5-2.6-2.6L71.9,43.7C73.1,44.1,74.2,44.9,74.9,45.9z"/>
	</g>
	<path class="st0" d="M101.6,87.7H26.5c-1.4,0-2.5-1.1-2.5-2.5s1.1-2.5,2.5-2.5h75.1c1.4,0,2.5,1.1,2.5,2.5S103,87.7,101.6,87.7z"/>
</g>
</svg>
