<?xml version="1.0" encoding="utf-8"?>
<!-- Generator: Adobe Illustrator 21.1.0, SVG Export Plug-In . SVG Version: 6.00 Build 0)  -->
<svg version="1.1" id="Layer_1" xmlns="http://www.w3.org/2000/svg" xmlns:xlink="http://www.w3.org/1999/xlink" x="0px" y="0px"
	 viewBox="0 0 104 155" style="enable-background:new 0 0 104 155;" xml:space="preserve">
<style type="text/css">
	.st0{fill:#7BC043;}
</style>
<g>
	<path class="st0" d="M9.7,142c0.8,0.6,1.3,1.4,1.3,2.4c0,0.7-0.2,1.3-0.6,1.9s-1,0.9-1.7,1.1c0.9,0.2,1.5,0.5,2,1.1
		s0.7,1.3,0.7,2.2c0,1.1-0.4,2-1.3,2.7s-2.1,1-3.7,1H0.1v-13.3h6.1C7.7,141.1,8.8,141.4,9.7,142z M7.4,146.1
		c0.3-0.3,0.5-0.6,0.5-1.1c0-0.5-0.2-0.8-0.5-1.1c-0.3-0.3-0.8-0.4-1.3-0.4h-3v2.9h3C6.6,146.5,7.1,146.3,7.4,146.1z M7.7,151.5
		c0.4-0.3,0.6-0.7,0.6-1.2c0-0.5-0.2-0.9-0.6-1.1c-0.4-0.3-1-0.4-1.7-0.4h-3v3.2h3C6.7,152,7.3,151.8,7.7,151.5z"/>
	<path class="st0" d="M21.8,154.4l-2.1-3.8h-0.3h-2.8v3.8h-3v-13.3h5.8c1.7,0,3.1,0.4,4,1.2c0.9,0.8,1.4,1.9,1.4,3.4
		c0,1-0.2,1.9-0.6,2.6c-0.4,0.7-1,1.3-1.9,1.7l2.8,4.4H21.8z M16.6,148.1h2.8c0.8,0,1.5-0.2,1.9-0.6c0.4-0.4,0.7-1,0.7-1.7
		c0-0.7-0.2-1.3-0.7-1.7c-0.4-0.4-1.1-0.6-1.9-0.6h-2.8V148.1z"/>
	<path class="st0" d="M37.2,154.4l-1-2.6H30l-1,2.6h-3.1l5.8-13.3h3.1l5.7,13.3H37.2z M31,149.4h4.2l-2.1-5.2L31,149.4z"/>
	<path class="st0" d="M51,141.1h2.8v13.3h-2.7l-6.4-8.6v8.6h-2.9v-13.3h2.7l6.5,8.6V141.1z"/>
	<path class="st0" d="M66,142c1.1,0.6,1.9,1.3,2.5,2.4c0.6,1,0.9,2.2,0.9,3.4c0,1.3-0.3,2.4-0.9,3.4c-0.6,1-1.4,1.8-2.5,2.4
		c-1.1,0.6-2.3,0.8-3.7,0.8h-5.5v-13.3h5.6C63.7,141.1,65,141.4,66,142z M64.5,151.4c0.6-0.3,1-0.8,1.4-1.5c0.3-0.6,0.5-1.3,0.5-2.1
		c0-0.8-0.2-1.5-0.5-2.1c-0.3-0.6-0.8-1.1-1.4-1.5c-0.6-0.3-1.3-0.5-2-0.5h-2.6v8.2h2.7C63.2,151.9,63.9,151.7,64.5,151.4z"/>
	<path class="st0" d="M71.4,141.1h3v13.3h-3V141.1z"/>
	<path class="st0" d="M86.5,141.1h2.8v13.3h-2.7l-6.4-8.6v8.6h-2.9v-13.3H80l6.5,8.6V141.1z"/>
	<path class="st0" d="M101.2,147.7h2.6v5.2c-0.7,0.5-1.6,0.9-2.5,1.3c-1,0.3-1.9,0.5-2.8,0.5c-1.3,0-2.5-0.3-3.6-0.9
		c-1.1-0.6-1.9-1.4-2.5-2.5c-0.6-1-0.9-2.2-0.9-3.5c0-1.3,0.3-2.4,0.9-3.5c0.6-1,1.5-1.9,2.6-2.5c1.1-0.6,2.3-0.9,3.7-0.9
		c1,0,2,0.2,2.9,0.5c0.9,0.4,1.8,0.8,2.4,1.4l-1.7,2.1c-0.5-0.5-1.1-0.8-1.7-1.1c-0.6-0.3-1.3-0.4-1.9-0.4c-0.8,0-1.5,0.2-2.1,0.6
		c-0.6,0.4-1.1,0.9-1.5,1.5c-0.4,0.6-0.6,1.4-0.6,2.1s0.2,1.5,0.6,2.2c0.4,0.7,0.9,1.2,1.5,1.5c0.6,0.4,1.3,0.6,2.1,0.6
		c0.4,0,0.8-0.1,1.3-0.2s0.9-0.3,1.3-0.5V147.7z"/>
</g>
<g>
	<g>
		<path class="st0" d="M86.3,9.7h-1.6V8.1c0-3.7-3-6.7-6.7-6.7H17.7c-3.7,0-6.7,3-6.7,6.7v74.2c0,3.7,3,6.7,6.7,6.7h1.6v1.5
			c0,3.7,3,6.7,6.7,6.7h60.2c3.7,0,6.7-3,6.7-6.7V16.4C93,12.7,90,9.7,86.3,9.7z M17.7,84.4c-1.1,0-2.1-0.9-2.1-2.1V8.1
			c0-1.1,0.9-2.1,2.1-2.1h60.2C79.1,6.1,80,7,80,8.1v1.5h-54c-3.7,0-6.7,3-6.7,6.7v68H17.7z M88.4,90.5c0,1.2-0.9,2.1-2.1,2.1H26.1
			c-1.1,0-2.1-0.9-2.1-2.1V16.4c0-1.1,0.9-2.1,2.1-2.1h60.2c1.1,0,2.1,0.9,2.1,2.1V90.5z"/>
		<path class="st0" d="M80.2,67.2H33.6c-0.9,0-1.6,0.7-1.6,1.6s0.7,1.6,1.6,1.6h46.6c0.9,0,1.6-0.7,1.6-1.6S81.1,67.2,80.2,67.2z"/>
		<path class="st0" d="M80.2,77.4H33.6c-0.9,0-1.6,0.7-1.6,1.6s0.7,1.6,1.6,1.6h46.6c0.9,0,1.6-0.7,1.6-1.6S81.1,77.4,80.2,77.4z"/>
	</g>
	<g>
		<path class="st0" d="M33.6,39.5v0.4c23.3,27.6,46.6,0,46.6,0v-0.4C56.9,11.9,33.6,39.5,33.6,39.5z M56.7,50.5
			c-5.9,0-10.8-4.8-10.8-10.8S50.8,29,56.7,29c5.9,0,10.8,4.8,10.8,10.8S62.7,50.5,56.7,50.5z"/>
		<path class="st0" d="M56.7,32.3c-0.4,0-0.8,0-1.1,0.1l0,6.7l-5.2-3.2c-0.7,1.1-1.1,2.5-1.1,3.9c0,4.1,3.3,7.5,7.5,7.5
			c4.1,0,7.5-3.3,7.5-7.5C64.2,35.6,60.8,32.3,56.7,32.3z"/>
	</g>
</g>
</svg>
