<?xml version="1.0" encoding="utf-8"?>
<!-- Generator: Adobe Illustrator 21.0.0, SVG Export Plug-In . SVG Version: 6.00 Build 0)  -->
<svg version="1.1" id="Layer_1" xmlns="http://www.w3.org/2000/svg" xmlns:xlink="http://www.w3.org/1999/xlink" x="0px" y="0px"
	 viewBox="0 0 1200 341" style="enable-background:new 0 0 1200 341;" xml:space="preserve">
<style type="text/css">
	.Drop_x0020_Shadow{fill:none;}
	.Round_x0020_Corners_x0020_2_x0020_pt{fill:#FFFFFF;stroke:#231F20;stroke-miterlimit:10;}
	.Live_x0020_Reflect_x0020_X{fill:none;}
	.Bevel_x0020_Soft{fill:url(#SVGID_1_);}
	.Dusk{fill:#FFFFFF;}
	.Foliage_GS{fill:#FFDD00;}
	.Pompadour_GS{fill-rule:evenodd;clip-rule:evenodd;fill:#44ADE2;}
	.st0{clip-path:url(#SVGID_2_);}
	.st1{fill:#7BC043;}
	.st2{fill:#808184;}
	.st3{fill:#666666;}
	.st4{fill:#406734;}
</style>
<linearGradient id="SVGID_1_" gradientUnits="userSpaceOnUse" x1="0" y1="0" x2="0.7071" y2="0.7071">
	<stop  offset="0" style="stop-color:#DEDFE3"/>
	<stop  offset="0.1783" style="stop-color:#DADBDF"/>
	<stop  offset="0.3611" style="stop-color:#CECFD3"/>
	<stop  offset="0.546" style="stop-color:#B9BCBF"/>
	<stop  offset="0.7324" style="stop-color:#9CA0A2"/>
	<stop  offset="0.9181" style="stop-color:#787D7E"/>
	<stop  offset="1" style="stop-color:#656B6C"/>
</linearGradient>
<g>
	<defs>
		<rect id="SVGID_3_" x="-2" y="0" width="1202" height="350.9"/>
	</defs>
	<clipPath id="SVGID_2_">
		<use xlink:href="#SVGID_3_"  style="overflow:visible;"/>
	</clipPath>
	<g class="st0">
		<path class="st1" d="M1200,218.7c-350.7,0-636.1-285.4-636.1-636.1v-103.5h72.4v103.5c0,310.8,252.9,563.7,563.7,563.7V218.7z"/>
		<path class="st2" d="M0.2,218.7v-72.4c310.8,0,563.7-252.9,563.7-563.7v-103.5h72.4v103.5C636.3-66.7,350.9,218.7,0.2,218.7z"/>
		<path class="st1" d="M486.3-447.3h-72.4C413.9-280.7,466-126,554.8,1.3c16.2-19.9,31.3-40.8,45.3-62.4
			C528.1-172.5,486.3-305.1,486.3-447.3z"/>
		<path class="st1" d="M645.4,1.3c-14.2,20.3-29.3,39.9-45.3,58.8C744.4,230.5,959.8,338.8,1200,338.8v-72.4
			C976.3,266.4,776.3,162.9,645.4,1.3z"/>
		<path class="st3" d="M0.2,266.4v72.4c240.2,0,455.6-108.3,599.9-278.6c-16-18.9-31.1-38.5-45.3-58.8
			C423.9,162.9,223.9,266.4,0.2,266.4z"/>
		<path class="st3" d="M786.3-447.3h-72.4c0,142.2-41.8,274.8-113.8,386.2c14,21.6,29.1,42.5,45.3,62.4
			C734.1-126,786.3-280.7,786.3-447.3z"/>
		<path class="st4" d="M600.1-61.1c-14,21.6-29.1,42.5-45.3,62.4c14.2,20.3,29.3,39.9,45.3,58.8c16-18.9,31.1-38.5,45.3-58.8
			C629.2-18.6,614.1-39.5,600.1-61.1z"/>
		<path class="st4" d="M821.4-200.1c-14,21.6-29.1,42.5-45.3,62.4c14.2,20.3,29.3,39.9,45.3,58.8c16-18.9,31.1-38.5,45.3-58.8
			C850.5-157.6,835.4-178.4,821.4-200.1z"/>
	</g>
</g>
</svg>
