<?xml version="1.0" encoding="utf-8"?>
<!-- Generator: Adobe Illustrator 21.1.0, SVG Export Plug-In . SVG Version: 6.00 Build 0)  -->
<svg version="1.1" id="Layer_1" xmlns="http://www.w3.org/2000/svg" xmlns:xlink="http://www.w3.org/1999/xlink" x="0px" y="0px"
	 viewBox="0 0 104 155" style="enable-background:new 0 0 104 155;" xml:space="preserve">
<style type="text/css">
	.st0{fill:#BBBDBF;}
</style>
<g>
	<path class="st0" d="M2.9,141.1h3v10.7h5.7v2.6H2.9V141.1z"/>
	<path class="st0" d="M23.2,141.8c1.1,0.6,1.9,1.4,2.6,2.5s0.9,2.2,0.9,3.5s-0.3,2.4-0.9,3.5c-0.6,1.1-1.5,1.9-2.6,2.5
		c-1.1,0.6-2.3,0.9-3.6,0.9c-1.3,0-2.5-0.3-3.6-0.9s-1.9-1.4-2.6-2.5s-0.9-2.2-0.9-3.5c0-1.3,0.3-2.4,0.9-3.5s1.5-1.9,2.6-2.5
		c1.1-0.6,2.3-0.9,3.6-0.9C20.9,140.9,22.1,141.2,23.2,141.8z M17.6,144.1c-0.6,0.4-1.1,0.9-1.5,1.5c-0.4,0.6-0.6,1.4-0.6,2.1
		c0,0.8,0.2,1.5,0.6,2.1c0.4,0.6,0.9,1.2,1.5,1.5c0.6,0.4,1.3,0.6,2,0.6c0.7,0,1.4-0.2,2-0.6c0.6-0.4,1.1-0.9,1.5-1.5
		c0.4-0.7,0.5-1.4,0.5-2.2c0-0.8-0.2-1.5-0.5-2.1c-0.4-0.6-0.8-1.2-1.5-1.5c-0.6-0.4-1.3-0.6-2-0.6
		C18.9,143.5,18.2,143.7,17.6,144.1z"/>
	<path class="st0" d="M37.3,147.7h2.6v5.2c-0.7,0.5-1.6,0.9-2.5,1.3c-1,0.3-1.9,0.5-2.9,0.5c-1.3,0-2.5-0.3-3.6-0.9
		c-1.1-0.6-1.9-1.4-2.5-2.5s-0.9-2.2-0.9-3.5c0-1.3,0.3-2.4,0.9-3.5s1.5-1.9,2.6-2.5c1.1-0.6,2.3-0.9,3.7-0.9c1,0,2,0.2,2.9,0.5
		c0.9,0.4,1.8,0.8,2.4,1.4l-1.7,2.1c-0.5-0.5-1.1-0.8-1.7-1.1s-1.3-0.4-1.9-0.4c-0.8,0-1.5,0.2-2.1,0.6c-0.6,0.4-1.1,0.9-1.5,1.5
		c-0.4,0.6-0.6,1.4-0.6,2.1s0.2,1.5,0.6,2.2s0.9,1.2,1.5,1.5c0.6,0.4,1.3,0.6,2.1,0.6c0.4,0,0.8-0.1,1.3-0.2s0.9-0.3,1.3-0.5V147.7z
		"/>
	<path class="st0" d="M42.5,141.1h3v13.3h-3V141.1z"/>
	<path class="st0" d="M55,143.8c-0.8-0.2-1.4-0.4-2-0.4c-0.5,0-0.9,0.1-1.2,0.3c-0.3,0.2-0.5,0.5-0.5,0.8c0,0.5,0.2,0.8,0.7,1.1
		c0.4,0.2,1.1,0.5,2,0.8s1.7,0.5,2.3,0.8c0.6,0.3,1.1,0.7,1.5,1.2c0.4,0.5,0.6,1.2,0.6,2.1c0,0.8-0.2,1.6-0.7,2.2
		c-0.5,0.6-1.1,1.1-1.9,1.4c-0.8,0.3-1.7,0.5-2.7,0.5c-1.1,0-2.1-0.2-3.2-0.6c-1-0.4-1.9-0.9-2.7-1.6l1.2-2.5
		c0.7,0.6,1.4,1.1,2.3,1.5s1.7,0.6,2.4,0.6c0.6,0,1.1-0.1,1.5-0.3c0.3-0.2,0.5-0.6,0.5-1c0-0.3-0.1-0.6-0.4-0.8
		c-0.2-0.2-0.5-0.4-0.9-0.5s-0.9-0.3-1.5-0.5c-0.9-0.3-1.7-0.5-2.2-0.8c-0.6-0.3-1.1-0.6-1.5-1.2s-0.6-1.2-0.6-2.1
		c0-0.8,0.2-1.5,0.6-2.1c0.4-0.6,1-1.1,1.8-1.4c0.8-0.3,1.7-0.5,2.7-0.5c0.9,0,1.8,0.1,2.7,0.4s1.7,0.6,2.4,1.1l-1.2,2.5
		C56.5,144.4,55.8,144.1,55,143.8z"/>
	<path class="st0" d="M59.2,141.1h11.1v2.5h-4.1v10.8h-3v-10.8h-4V141.1z"/>
	<path class="st0" d="M72,141.1h3v13.3h-3V141.1z"/>
	<path class="st0" d="M86,144c-0.6-0.3-1.2-0.5-1.9-0.5c-0.7,0-1.4,0.2-2.1,0.6c-0.6,0.4-1.1,0.9-1.5,1.5c-0.4,0.6-0.5,1.3-0.5,2.1
		c0,0.8,0.2,1.5,0.5,2.1c0.4,0.6,0.8,1.1,1.5,1.5c0.6,0.4,1.3,0.6,2.1,0.6c0.6,0,1.2-0.1,1.8-0.4s1.2-0.7,1.6-1.1l1.8,1.9
		c-0.7,0.7-1.5,1.3-2.5,1.7c-1,0.4-1.9,0.6-2.9,0.6c-1.3,0-2.5-0.3-3.6-0.9c-1.1-0.6-1.9-1.4-2.5-2.5c-0.6-1.1-0.9-2.2-0.9-3.5
		c0-1.3,0.3-2.4,0.9-3.5c0.6-1,1.5-1.9,2.6-2.5c1.1-0.6,2.3-0.9,3.6-0.9c1,0,1.9,0.2,2.9,0.6c0.9,0.4,1.7,0.9,2.4,1.6l-1.7,2.1
		C87.1,144.7,86.6,144.3,86,144z"/>
	<path class="st0" d="M97.7,143.8c-0.8-0.2-1.4-0.4-2-0.4c-0.5,0-0.9,0.1-1.2,0.3c-0.3,0.2-0.5,0.5-0.5,0.8c0,0.5,0.2,0.8,0.7,1.1
		c0.4,0.2,1.1,0.5,2,0.8s1.7,0.5,2.3,0.8s1.1,0.7,1.5,1.2c0.4,0.5,0.6,1.2,0.6,2.1c0,0.8-0.2,1.6-0.7,2.2c-0.5,0.6-1.1,1.1-1.9,1.4
		s-1.7,0.5-2.7,0.5c-1.1,0-2.1-0.2-3.2-0.6c-1-0.4-1.9-0.9-2.7-1.6l1.2-2.5c0.7,0.6,1.4,1.1,2.3,1.5s1.7,0.6,2.4,0.6
		c0.6,0,1.1-0.1,1.5-0.3s0.5-0.6,0.5-1c0-0.3-0.1-0.6-0.4-0.8c-0.2-0.2-0.5-0.4-0.9-0.5c-0.4-0.1-0.9-0.3-1.5-0.5
		c-0.9-0.3-1.7-0.5-2.2-0.8c-0.6-0.3-1.1-0.6-1.5-1.2s-0.6-1.2-0.6-2.1c0-0.8,0.2-1.5,0.6-2.1c0.4-0.6,1-1.1,1.8-1.4
		c0.8-0.3,1.7-0.5,2.7-0.5c0.9,0,1.8,0.1,2.7,0.4s1.7,0.6,2.4,1.1l-1.2,2.5C99.2,144.4,98.5,144.1,97.7,143.8z"/>
</g>
<g>
	<path class="st0" d="M87.2,18.2H75.9V16c0-2.7-2.2-4.9-4.9-4.9h-7.4C62.7,5.4,57.9,1,52,1S41.3,5.4,40.5,11h-7.4
		c-2.7,0-4.9,2.2-4.9,4.9v2.3H16.8c-6.7,0-12.1,5.4-12.1,12.1v64.3c0,6.7,5.4,12.1,12.1,12.1h70.3c6.7,0,12.1-5.4,12.1-12.1V30.3
		C99.2,23.6,93.8,18.2,87.2,18.2z M52,8.3c2.3,0,4.2,1.9,4.2,4.2c0,2.3-1.9,4.2-4.2,4.2c-2.3,0-4.2-1.9-4.2-4.2
		C47.8,10.2,49.7,8.3,52,8.3z M94.4,94.5c0,4-3.2,7.2-7.2,7.2H16.8c-4,0-7.2-3.2-7.2-7.2V30.3c0-4,3.2-7.2,7.2-7.2h11.3v6
		c0,2.7,2.2,4.9,4.9,4.9h37.9c2.7,0,4.9-2.2,4.9-4.9v-6h11.3c4,0,7.2,3.2,7.2,7.2V94.5z"/>
	<path class="st0" d="M80.1,42.6l-0.7-0.6c-1.3-1.2-3.3-1.1-4.5,0.2L41.2,79.7l-12-16.4c-1-1.4-3-1.7-4.4-0.7L24,63.1
		c-0.7,0.5-1.1,1.2-1.3,2.1c-0.1,0.8,0.1,1.7,0.6,2.3l14.9,20.4c0.6,0.8,1.4,1.2,2.4,1.3c0.1,0,0.1,0,0.2,0c0.9,0,1.7-0.4,2.3-1
		L80.3,47C81.5,45.7,81.4,43.7,80.1,42.6z"/>
</g>
</svg>
