<?xml version="1.0" encoding="utf-8"?>
<!-- Generator: Adobe Illustrator 21.0.0, SVG Export Plug-In . SVG Version: 6.00 Build 0)  -->
<svg version="1.1" id="Layer_1" xmlns="http://www.w3.org/2000/svg" xmlns:xlink="http://www.w3.org/1999/xlink" x="0px" y="0px"
	 viewBox="0 0 151.8 13" style="enable-background:new 0 0 151.8 13;" xml:space="preserve">
<style type="text/css">
	.Drop_x0020_Shadow{fill:none;}
	.Round_x0020_Corners_x0020_2_x0020_pt{fill:#FFFFFF;stroke:#231F20;stroke-miterlimit:10;}
	.Live_x0020_Reflect_x0020_X{fill:none;}
	.Bevel_x0020_Soft{fill:url(#SVGID_1_);}
	.Dusk{fill:#FFFFFF;}
	.Foliage_GS{fill:#FFDD00;}
	.Pompadour_GS{fill-rule:evenodd;clip-rule:evenodd;fill:#44ADE2;}
	.st0{fill:#414141;}
	.st1{fill:#808080;}
	.st2{font-family:'Gotham-Book';}
	.st3{font-size:16.0968px;}
	.st4{letter-spacing:1;}
</style>
<linearGradient id="SVGID_1_" gradientUnits="userSpaceOnUse" x1="-2.625" y1="-235.125" x2="-1.9179" y2="-234.4179">
	<stop  offset="0" style="stop-color:#DEDFE3"/>
	<stop  offset="0.1783" style="stop-color:#DADBDF"/>
	<stop  offset="0.3611" style="stop-color:#CECFD3"/>
	<stop  offset="0.546" style="stop-color:#B9BCBF"/>
	<stop  offset="0.7324" style="stop-color:#9CA0A2"/>
	<stop  offset="0.9181" style="stop-color:#787D7E"/>
	<stop  offset="1" style="stop-color:#656B6C"/>
</linearGradient>
<g>
	<g>
		<path class="st0" d="M0.5,1.1H9v2.2h-6v2.3h5.3v2.2H2.9v2.4h6.1v2.2H0.5V1.1z"/>
		<path class="st0" d="M14.2,1h2.7l3,4.8l3-4.8h2.7v11.3H23V4.9l-3.2,4.8h-0.1l-3.1-4.8v7.3h-2.4V1z"/>
		<path class="st0" d="M31.1,1h8.5v2.2h-6v2.3h5.3v2.2h-5.3v2.4h6.1v2.2h-8.6V1z"/>
		<path class="st0" d="M44.8,1h5.2c1.4,0,2.5,0.4,3.3,1.1c0.6,0.6,1,1.5,1,2.6v0c0,0.9-0.2,1.7-0.7,2.2c-0.4,0.6-1,1-1.7,1.3l2.8,4
			h-2.9l-2.4-3.6h0h-1.9v3.6h-2.5V1z M49.7,6.5c0.6,0,1.1-0.1,1.4-0.4c0.3-0.3,0.5-0.7,0.5-1.2v0c0-0.5-0.2-0.9-0.5-1.2
			c-0.3-0.3-0.8-0.4-1.4-0.4h-2.5v3.2H49.7z"/>
		<path class="st0" d="M64.7,12.5c-0.9,0-1.7-0.1-2.4-0.4c-0.7-0.3-1.3-0.7-1.9-1.2c-0.5-0.5-0.9-1.1-1.2-1.8
			c-0.3-0.7-0.4-1.5-0.4-2.3v0c0-0.8,0.1-1.6,0.4-2.3C59.5,3.7,60,3,60.5,2.5c0.5-0.5,1.1-1,1.9-1.3c0.7-0.3,1.5-0.5,2.4-0.5
			c0.5,0,1,0,1.4,0.1c0.4,0.1,0.8,0.2,1.2,0.3s0.7,0.3,1,0.5c0.3,0.2,0.6,0.4,0.9,0.7l-1.6,1.9c-0.2-0.2-0.4-0.3-0.6-0.5
			c-0.2-0.1-0.4-0.3-0.7-0.4c-0.2-0.1-0.5-0.2-0.7-0.2c-0.3-0.1-0.6-0.1-0.9-0.1c-0.5,0-0.9,0.1-1.3,0.3c-0.4,0.2-0.7,0.4-1,0.8
			c-0.3,0.3-0.5,0.7-0.7,1.1c-0.2,0.4-0.2,0.9-0.2,1.4v0c0,0.5,0.1,1,0.2,1.4c0.2,0.4,0.4,0.8,0.7,1.1c0.3,0.3,0.7,0.6,1.1,0.8
			c0.4,0.2,0.9,0.3,1.4,0.3c0.9,0,1.7-0.2,2.3-0.7V7.9h-2.5V5.8h4.9v4.9c-0.6,0.5-1.3,0.9-2.1,1.3C66.7,12.3,65.8,12.5,64.7,12.5z"
			/>
		<path class="st0" d="M74.8,1h8.5v2.2h-6v2.3h5.3v2.2h-5.3v2.4h6.1v2.2h-8.6V1z"/>
	</g>
	<text transform="matrix(1 0 0 1 88.2697 12.2236)"><tspan x="0" y="0" class="st1 st2 st3">R</tspan><tspan x="12" y="0" class="st1 st2 st3">E</tspan><tspan x="23.7" y="0" class="st1 st2 st3">T</tspan><tspan x="33.3" y="0" class="st1 st2 st3">A</tspan><tspan x="47" y="0" class="st1 st2 st3 st4">IL</tspan></text>
</g>
</svg>
