<?xml version="1.0" encoding="utf-8"?>
<!-- Generator: Adobe Illustrator 21.1.0, SVG Export Plug-In . SVG Version: 6.00 Build 0)  -->
<svg version="1.1" id="Layer_1" xmlns="http://www.w3.org/2000/svg" xmlns:xlink="http://www.w3.org/1999/xlink" x="0px" y="0px"
	 viewBox="0 0 128 155" style="enable-background:new 0 0 128 155;" xml:space="preserve">
<style type="text/css">
	.st0{fill:#BBBDBF;}
</style>
<g>
	<path class="st0" d="M11.6,141.8c1.1,0.6,1.9,1.4,2.6,2.5s0.9,2.2,0.9,3.5s-0.3,2.4-0.9,3.5c-0.6,1.1-1.5,1.9-2.6,2.5
		c-1.1,0.6-2.3,0.9-3.6,0.9c-1.3,0-2.5-0.3-3.6-0.9s-1.9-1.4-2.6-2.5s-0.9-2.2-0.9-3.5c0-1.3,0.3-2.4,0.9-3.5s1.5-1.9,2.6-2.5
		c1.1-0.6,2.3-0.9,3.6-0.9C9.3,140.9,10.5,141.2,11.6,141.8z M5.9,144.1c-0.6,0.4-1.1,0.9-1.5,1.5c-0.4,0.6-0.6,1.4-0.6,2.1
		c0,0.8,0.2,1.5,0.6,2.1c0.4,0.6,0.9,1.2,1.5,1.5c0.6,0.4,1.3,0.6,2,0.6c0.7,0,1.4-0.2,2-0.6c0.6-0.4,1.1-0.9,1.5-1.5
		c0.4-0.7,0.5-1.4,0.5-2.2c0-0.8-0.2-1.5-0.5-2.1c-0.4-0.6-0.8-1.2-1.5-1.5c-0.6-0.4-1.3-0.6-2-0.6C7.2,143.5,6.6,143.7,5.9,144.1z"
		/>
	<path class="st0" d="M26.6,142.3c0.9,0.8,1.4,1.9,1.4,3.4c0,1.5-0.5,2.7-1.4,3.6c-0.9,0.9-2.2,1.3-3.9,1.3h-2.6v3.8h-3v-13.3h5.6
		C24.4,141.1,25.7,141.5,26.6,142.3z M24.5,147.5c0.4-0.4,0.7-1,0.7-1.7c0-0.7-0.2-1.3-0.7-1.7c-0.4-0.4-1.1-0.6-1.9-0.6h-2.5v4.5
		h2.5C23.4,148.1,24,147.9,24.5,147.5z"/>
	<path class="st0" d="M29.9,141.1h10.1v2.5h-7.1v2.9h6.4v2.5h-6.4v2.9h7.3v2.5H29.9V141.1z"/>
	<path class="st0" d="M50.8,154.4l-2.1-3.8h-0.3h-2.8v3.8h-3v-13.3h5.8c1.7,0,3.1,0.4,4,1.2c0.9,0.8,1.4,1.9,1.4,3.4
		c0,1-0.2,1.9-0.6,2.6c-0.4,0.7-1,1.3-1.9,1.7l2.8,4.4H50.8z M45.6,148.1h2.8c0.8,0,1.5-0.2,1.9-0.6c0.4-0.4,0.7-1,0.7-1.7
		c0-0.7-0.2-1.3-0.7-1.7c-0.4-0.4-1.1-0.6-1.9-0.6h-2.8V148.1z"/>
	<path class="st0" d="M66.2,154.4l-1-2.6H59l-1,2.6h-3.1l5.8-13.3h3.1l5.7,13.3H66.2z M60,149.4h4.2l-2.1-5.2L60,149.4z"/>
	<path class="st0" d="M68.1,141.1h11.1v2.5h-4.1v10.8h-3v-10.8h-4V141.1z"/>
	<path class="st0" d="M80.8,141.1h3v13.3h-3V141.1z"/>
	<path class="st0" d="M96.6,141.8c1.1,0.6,1.9,1.4,2.6,2.5s0.9,2.2,0.9,3.5s-0.3,2.4-0.9,3.5c-0.6,1.1-1.5,1.9-2.6,2.5
		c-1.1,0.6-2.3,0.9-3.6,0.9s-2.5-0.3-3.6-0.9c-1.1-0.6-1.9-1.4-2.6-2.5s-0.9-2.2-0.9-3.5c0-1.3,0.3-2.4,0.9-3.5s1.5-1.9,2.6-2.5
		c1.1-0.6,2.3-0.9,3.6-0.9C94.3,140.9,95.5,141.2,96.6,141.8z M91,144.1c-0.6,0.4-1.1,0.9-1.5,1.5c-0.4,0.6-0.6,1.4-0.6,2.1
		c0,0.8,0.2,1.5,0.6,2.1c0.4,0.6,0.9,1.2,1.5,1.5c0.6,0.4,1.3,0.6,2,0.6s1.4-0.2,2-0.6c0.6-0.4,1.1-0.9,1.5-1.5s0.5-1.4,0.5-2.2
		c0-0.8-0.2-1.5-0.5-2.1c-0.4-0.6-0.8-1.2-1.5-1.5c-0.6-0.4-1.3-0.6-2-0.6S91.6,143.7,91,144.1z"/>
	<path class="st0" d="M111.3,141.1h2.8v13.3h-2.7l-6.4-8.6v8.6h-2.9v-13.3h2.7l6.5,8.6V141.1z"/>
	<path class="st0" d="M123.7,143.8c-0.8-0.2-1.4-0.4-2-0.4c-0.5,0-0.9,0.1-1.2,0.3c-0.3,0.2-0.5,0.5-0.5,0.8c0,0.5,0.2,0.8,0.7,1.1
		c0.4,0.2,1.1,0.5,2,0.8s1.7,0.5,2.3,0.8s1.1,0.7,1.5,1.2c0.4,0.5,0.6,1.2,0.6,2.1c0,0.8-0.2,1.6-0.7,2.2c-0.5,0.6-1.1,1.1-1.9,1.4
		s-1.7,0.5-2.7,0.5c-1.1,0-2.1-0.2-3.2-0.6c-1-0.4-1.9-0.9-2.7-1.6l1.2-2.5c0.7,0.6,1.4,1.1,2.3,1.5s1.7,0.6,2.4,0.6
		c0.6,0,1.1-0.1,1.5-0.3s0.5-0.6,0.5-1c0-0.3-0.1-0.6-0.4-0.8c-0.2-0.2-0.5-0.4-0.9-0.5c-0.4-0.1-0.9-0.3-1.5-0.5
		c-0.9-0.3-1.7-0.5-2.2-0.8c-0.6-0.3-1.1-0.6-1.5-1.2s-0.6-1.2-0.6-2.1c0-0.8,0.2-1.5,0.6-2.1c0.4-0.6,1-1.1,1.8-1.4
		c0.8-0.3,1.7-0.5,2.7-0.5c0.9,0,1.8,0.1,2.7,0.4s1.7,0.6,2.4,1.1l-1.2,2.5C125.2,144.4,124.4,144.1,123.7,143.8z"/>
</g>
<g>
	<path class="st0" d="M28.7,51.9c2.5,1.7,5.4,2.9,8.4,3.7c0.5-4.5,1.8-8.8,3.8-12.7c-7.4-1.6-12.7-8.6-11.6-16.5
		c1-6.9,6.9-12.3,13.9-12.7c7.9-0.4,14.4,5.4,15.4,12.8c4-1.7,8.3-2.7,12.9-2.9c-0.5-3-1.5-5.8-2.9-8.3c-0.5-0.9-1.8-1.1-2.5-0.4
		l-0.7,0.7c-2,1.8-5.1,1.7-6.9-0.3c-1.8-2-1.7-5.1,0.3-6.9l0.7-0.7c0.8-0.7,0.7-2-0.2-2.6c-2.2-1.4-4.6-2.6-7.2-3.4
		c-1-0.3-2,0.4-2.1,1.5L50,4c-0.1,2.8-2.5,5.1-5.2,4.9c-1.3-0.1-2.4-0.7-3.3-1.6c-0.8-0.9-1.3-2.2-1.3-3.5l0-1c0-1.1-0.9-1.9-2-1.7
		c-2.7,0.6-5.2,1.5-7.5,2.7c-0.9,0.5-1.1,1.8-0.4,2.5l0.5,0.6c1.9,2,1.8,5.4-0.3,7.2c-1,0.8-2.2,1.2-3.4,1.2
		c-1.3-0.1-2.5-0.6-3.4-1.6l-0.7-0.7c-0.7-0.8-2-0.7-2.6,0.2c-1.4,2.2-2.6,4.6-3.4,7.2c-0.3,1,0.4,2,1.5,2.1l0.8,0
		c2.8,0.1,5.1,2.5,4.9,5.3c-0.1,1.3-0.7,2.4-1.6,3.3c-0.9,0.8-2.2,1.3-3.5,1.3l-1,0c-1.1,0-1.9,0.9-1.7,2c0.6,2.7,1.5,5.2,2.7,7.5
		c0.5,0.9,1.8,1.1,2.5,0.4l0.7-0.7c2-1.8,5.1-1.7,6.9,0.3c0.9,1,1.3,2.3,1.3,3.5c-0.1,1.3-0.6,2.5-1.6,3.4l-0.7,0.7
		C27.7,50,27.8,51.3,28.7,51.9z"/>
	<path class="st0" d="M103,64.6c0.3-3.4,3.4-6,6.9-5.7l0.3,0c0.8,0.1,1.4-0.6,1.3-1.3c-0.3-2.3-0.8-4.6-1.5-6.8
		c-0.2-0.7-1.1-1.1-1.7-0.7l0,0c-2.8,1.6-6.8,1-8.6-1.7c-1.1-1.6-1.3-3.5-0.9-5.1c0.4-1.6,1.4-3,2.9-3.9l0.3-0.1
		c0.6-0.4,0.8-1.3,0.3-1.8c-1.6-1.7-3.4-3.3-5.3-4.6c-0.6-0.4-1.5-0.2-1.8,0.5l-0.1,0.3c-1.4,3.2-5.1,4.7-8.3,3.3
		c-1.3-0.5-2.2-1.5-2.9-2.6c-1-1.7-1.2-3.8-0.4-5.7l0.1-0.3c0.3-0.7-0.1-1.5-0.9-1.6c-2.3-0.4-4.6-0.7-7-0.7c-0.8,0-1.3,0.7-1.2,1.4
		l0.1,0.3c0.8,3.4-1.4,6.8-4.8,7.5c-2.7,0.6-5.4-0.7-6.8-2.9c-0.3-0.6-0.6-1.2-0.7-1.8l-0.1-0.3c-0.2-0.7-1-1.1-1.6-0.8
		c-1.1,0.5-2.1,1-3.1,1.6c-1,0.6-2,1.2-2.9,1.9c-0.6,0.4-0.7,1.3-0.1,1.8l0.2,0.2c2.6,2.3,2.8,6.3,0.6,8.9c-0.4,0.5-1,0.9-1.5,1.3
		c-2.3,1.4-5.3,1.1-7.4-0.7l-0.2-0.2c-0.6-0.5-1.4-0.3-1.8,0.3c-1.1,2-2.1,4.2-2.8,6.4c-0.2,0.7,0.2,1.5,1,1.5l0.3,0
		c3.4,0.3,6,3.4,5.7,6.8c-0.2,2.1-1.4,3.8-3.1,4.8c-1.1,0.7-2.4,1-3.8,0.8l-0.3,0c-0.8-0.1-1.4,0.6-1.3,1.3c0.3,2.3,0.8,4.6,1.5,6.9
		c0.2,0.7,1.1,1,1.7,0.6l0.1,0c2.7-1.6,6.4-1.1,8.3,1.4c2.4,3,1.5,7.4-1.7,9.3l-0.3,0.2c-0.6,0.4-0.8,1.3-0.3,1.8
		c1.6,1.7,3.4,3.3,5.3,4.6c0.6,0.4,1.5,0.2,1.8-0.5l0.1-0.3c1.4-3.2,5.1-4.7,8.3-3.3c3.2,1.4,4.6,5.1,3.3,8.3L68,95.7
		c-0.3,0.7,0.1,1.5,0.9,1.6c2.3,0.4,4.6,0.7,6.9,0.7c0.8,0,1.3-0.7,1.2-1.4l-0.1-0.3c-0.8-3.4,1.4-6.8,4.8-7.5
		c3.4-0.7,6.8,1.4,7.5,4.8l0.1,0.3c0.2,0.7,1,1.1,1.7,0.8c1-0.5,2.1-1,3.1-1.6c1-0.6,2-1.2,2.9-1.9c0.6-0.4,0.7-1.3,0.1-1.8L96.8,89
		c-2.6-2.3-2.8-6.3-0.6-8.9c2.3-2.6,6.3-2.8,8.9-0.6l0.4,0.3c0.5,0.4,1.2,0.3,1.6-0.3c1.2-2.1,2.2-4.4,2.9-6.7
		c0.2-0.7-0.3-1.4-1-1.5l-0.3,0C105.2,71.2,102.6,68.1,103,64.6z M94.2,51.1c3.4,5.8,3.8,12.6,1.6,18.5l-9.6-5.4
		c0.5-2.5,0.2-5.3-1.3-7.7c-1.4-2.4-3.6-4-6.1-4.8l-0.1-11C84.9,41.7,90.7,45.3,94.2,51.1z M64.8,43.6c2.4-1.4,4.9-2.3,7.5-2.7
		l0.1,11c-0.7,0.2-1.4,0.6-2.1,1c-4.1,2.4-6,7.2-5,11.7l-9.5,5.6C51.9,60.4,55.5,49.1,64.8,43.6z M86.6,80.5
		c-9.3,5.5-20.9,3.2-27.5-4.9l9.5-5.6c3.4,3,8.5,3.7,12.6,1.2c0.7-0.4,1.3-0.9,1.9-1.4l9.6,5.4C91,77.3,89,79.1,86.6,80.5z"/>
	<path class="st0" d="M56.7,27.3c-0.6-6.4-6-11.3-12.5-11.3c-6.9,0-12.6,5.6-12.6,12.6c0,6.2,4.5,11.3,10.3,12.4
		C45.5,35.1,50.6,30.3,56.7,27.3z"/>
</g>
</svg>
