<?xml version="1.0" encoding="utf-8"?>
<!-- Generator: Adobe Illustrator 21.1.0, SVG Export Plug-In . SVG Version: 6.00 Build 0)  -->
<svg version="1.1" id="Layer_1" xmlns="http://www.w3.org/2000/svg" xmlns:xlink="http://www.w3.org/1999/xlink" x="0px" y="0px"
	 viewBox="0 0 104 155" style="enable-background:new 0 0 104 155;" xml:space="preserve">
<style type="text/css">
	.st0{fill:#BBBDBF;}
</style>
<g>
	<path class="st0" d="M29.3,142.8c-0.8-0.2-1.4-0.4-2-0.4c-0.5,0-0.9,0.1-1.2,0.3c-0.3,0.2-0.5,0.5-0.5,0.8c0,0.5,0.2,0.8,0.7,1.1
		c0.4,0.2,1.1,0.5,2,0.8s1.7,0.5,2.3,0.8c0.6,0.3,1.1,0.7,1.5,1.2c0.4,0.5,0.6,1.2,0.6,2.1c0,0.8-0.2,1.6-0.7,2.2
		c-0.5,0.6-1.1,1.1-1.9,1.4c-0.8,0.3-1.7,0.5-2.7,0.5c-1.1,0-2.1-0.2-3.2-0.6c-1-0.4-1.9-0.9-2.7-1.6l1.2-2.5
		c0.7,0.6,1.4,1.1,2.3,1.5s1.7,0.6,2.4,0.6c0.6,0,1.1-0.1,1.5-0.3c0.3-0.2,0.5-0.6,0.5-1c0-0.3-0.1-0.6-0.4-0.8
		c-0.2-0.2-0.5-0.4-0.9-0.5s-0.9-0.3-1.5-0.5c-0.9-0.3-1.7-0.5-2.2-0.8c-0.6-0.3-1.1-0.6-1.5-1.2s-0.6-1.2-0.6-2.1
		c0-0.8,0.2-1.5,0.6-2.1c0.4-0.6,1-1.1,1.8-1.4c0.8-0.3,1.7-0.5,2.7-0.5c0.9,0,1.8,0.1,2.7,0.4s1.7,0.6,2.4,1.1l-1.2,2.5
		C30.8,143.4,30.1,143.1,29.3,142.8z"/>
	<path class="st0" d="M44.6,153.4l-1-2.6h-6.2l-1,2.6h-3.1l5.8-13.3h3.1l5.7,13.3H44.6z M38.4,148.4h4.2l-2.1-5.2L38.4,148.4z"/>
	<path class="st0" d="M49.2,140.1h3v10.7h5.7v2.6h-8.7V140.1z"/>
	<path class="st0" d="M59.7,140.1h10.1v2.5h-7.1v2.9h6.4v2.5h-6.4v2.9H70v2.5H59.7V140.1z"/>
	<path class="st0" d="M78.9,142.8c-0.8-0.2-1.4-0.4-2-0.4c-0.5,0-0.9,0.1-1.2,0.3c-0.3,0.2-0.5,0.5-0.5,0.8c0,0.5,0.2,0.8,0.7,1.1
		c0.4,0.2,1.1,0.5,2,0.8s1.7,0.5,2.3,0.8c0.6,0.3,1.1,0.7,1.5,1.2c0.4,0.5,0.6,1.2,0.6,2.1c0,0.8-0.2,1.6-0.7,2.2
		c-0.5,0.6-1.1,1.1-1.9,1.4c-0.8,0.3-1.7,0.5-2.7,0.5c-1.1,0-2.1-0.2-3.2-0.6c-1-0.4-1.9-0.9-2.7-1.6l1.2-2.5
		c0.7,0.6,1.4,1.1,2.3,1.5s1.7,0.6,2.4,0.6c0.6,0,1.1-0.1,1.5-0.3c0.3-0.2,0.5-0.6,0.5-1c0-0.3-0.1-0.6-0.4-0.8
		c-0.2-0.2-0.5-0.4-0.9-0.5c-0.4-0.1-0.9-0.3-1.5-0.5c-0.9-0.3-1.7-0.5-2.2-0.8c-0.6-0.3-1.1-0.6-1.5-1.2s-0.6-1.2-0.6-2.1
		c0-0.8,0.2-1.5,0.6-2.1s1-1.1,1.8-1.4c0.8-0.3,1.7-0.5,2.7-0.5c0.9,0,1.8,0.1,2.7,0.4s1.7,0.6,2.4,1.1l-1.2,2.5
		C80.4,143.4,79.7,143.1,78.9,142.8z"/>
</g>
<g>
	<path class="st0" d="M88.5,80.2h-73c-1.2,0-2.1,1-2.1,2.1v6.4c0,1.2,1,2.1,2.1,2.1h73c1.2,0,2.1-1,2.1-2.1v-6.4
		C90.7,81.2,89.7,80.2,88.5,80.2z"/>
	<path class="st0" d="M73.3,76.3h7.5c1.2,0,2.2-1,2.2-2.2V3.4c0-1.2-1-2.2-2.2-2.2h-7.5c-1.2,0-2.2,1-2.2,2.2v70.7
		C71.1,75.3,72.1,76.3,73.3,76.3z"/>
	<path class="st0" d="M48.6,76.3h7.5c1.2,0,2.2-1,2.2-2.2V23.7c0-1.2-1-2.2-2.2-2.2h-7.5c-1.2,0-2.2,1-2.2,2.2v50.5
		C46.4,75.3,47.4,76.3,48.6,76.3z"/>
	<path class="st0" d="M22.8,76.3h7.5c1.2,0,2.2-1,2.2-2.2V43.8c0-1.2-1-2.2-2.2-2.2h-7.5c-1.2,0-2.2,1-2.2,2.2v30.4
		C20.6,75.3,21.5,76.3,22.8,76.3z"/>
</g>
</svg>
