<?xml version="1.0" encoding="utf-8"?>
<!-- Generator: Adobe Illustrator 21.1.0, SVG Export Plug-In . SVG Version: 6.00 Build 0)  -->
<svg version="1.1" id="Layer_1" xmlns="http://www.w3.org/2000/svg" xmlns:xlink="http://www.w3.org/1999/xlink" x="0px" y="0px"
	 viewBox="0 0 104 155" style="enable-background:new 0 0 104 155;" xml:space="preserve">
<style type="text/css">
	.st0{fill:#7BC043;}
</style>
<g>
	<path class="st0" d="M9.2,142.8c-0.8-0.2-1.4-0.4-2-0.4c-0.5,0-0.9,0.1-1.2,0.3c-0.3,0.2-0.5,0.5-0.5,0.8c0,0.5,0.2,0.8,0.7,1.1
		c0.4,0.2,1.1,0.5,2,0.8s1.7,0.5,2.3,0.8c0.6,0.3,1.1,0.7,1.5,1.2c0.4,0.5,0.6,1.2,0.6,2.1c0,0.8-0.2,1.6-0.7,2.2
		c-0.5,0.6-1.1,1.1-1.9,1.4c-0.8,0.3-1.7,0.5-2.7,0.5c-1.1,0-2.1-0.2-3.2-0.6c-1-0.4-1.9-0.9-2.7-1.6l1.2-2.5
		c0.7,0.6,1.4,1.1,2.3,1.5s1.7,0.6,2.4,0.6c0.6,0,1.1-0.1,1.5-0.3c0.3-0.2,0.5-0.6,0.5-1c0-0.3-0.1-0.6-0.4-0.8
		c-0.2-0.2-0.5-0.4-0.9-0.5s-0.9-0.3-1.5-0.5c-0.9-0.3-1.7-0.5-2.2-0.8c-0.6-0.3-1.1-0.6-1.5-1.2s-0.6-1.2-0.6-2.1
		c0-0.8,0.2-1.5,0.6-2.1c0.4-0.6,1-1.1,1.8-1.4c0.8-0.3,1.7-0.5,2.7-0.5c0.9,0,1.8,0.1,2.7,0.4s1.7,0.6,2.4,1.1l-1.2,2.5
		C10.7,143.4,10,143.1,9.2,142.8z"/>
	<path class="st0" d="M13.4,140.1h11.1v2.5h-4.1v10.8h-3v-10.8h-4V140.1z"/>
	<path class="st0" d="M34.3,153.4l-2.1-3.8h-0.3h-2.8v3.8h-3v-13.3h5.8c1.7,0,3.1,0.4,4,1.2c0.9,0.8,1.4,1.9,1.4,3.4
		c0,1-0.2,1.9-0.6,2.6c-0.4,0.7-1,1.3-1.9,1.7l2.8,4.4H34.3z M29.2,147.1h2.8c0.8,0,1.5-0.2,1.9-0.6c0.4-0.4,0.7-1,0.7-1.7
		c0-0.7-0.2-1.3-0.7-1.7c-0.4-0.4-1.1-0.6-1.9-0.6h-2.8V147.1z"/>
	<path class="st0" d="M49.7,153.4l-1-2.6h-6.2l-1,2.6h-3.1l5.8-13.3h3.1l5.7,13.3H49.7z M43.5,148.4h4.2l-2.1-5.2L43.5,148.4z"/>
	<path class="st0" d="M51.6,140.1h11.1v2.5h-4.1v10.8h-3v-10.8h-4V140.1z"/>
	<path class="st0" d="M64.4,140.1h10.1v2.5h-7.1v2.9h6.4v2.5h-6.4v2.9h7.3v2.5H64.4V140.1z"/>
	<path class="st0" d="M86,146.7h2.6v5.2c-0.7,0.5-1.6,0.9-2.5,1.3c-1,0.3-1.9,0.5-2.8,0.5c-1.3,0-2.5-0.3-3.6-0.9
		c-1.1-0.6-1.9-1.4-2.5-2.5c-0.6-1-0.9-2.2-0.9-3.5c0-1.3,0.3-2.4,0.9-3.5c0.6-1,1.5-1.9,2.6-2.5c1.1-0.6,2.3-0.9,3.7-0.9
		c1,0,2,0.2,2.9,0.5c0.9,0.4,1.8,0.8,2.4,1.4L87,144c-0.5-0.5-1.1-0.8-1.7-1.1c-0.6-0.3-1.3-0.4-1.9-0.4c-0.8,0-1.5,0.2-2.1,0.6
		c-0.6,0.4-1.1,0.9-1.5,1.5c-0.4,0.6-0.6,1.4-0.6,2.1s0.2,1.5,0.6,2.2c0.4,0.7,0.9,1.2,1.5,1.5c0.6,0.4,1.3,0.6,2.1,0.6
		c0.4,0,0.8-0.1,1.3-0.2s0.9-0.3,1.3-0.5V146.7z"/>
	<path class="st0" d="M102.5,140.1l-4.8,9v4.3h-3v-4.2l-4.9-9.1h3l3.4,6l3.3-6H102.5z"/>
</g>
<g>
	<circle class="st0" cx="12.8" cy="80.5" r="9.7"/>
	<circle class="st0" cx="52.1" cy="80.5" r="9.7"/>
	<circle class="st0" cx="91.2" cy="80.5" r="9.7"/>
	<path class="st0" d="M87.2,50.4v19.3c1.2-0.5,2.6-0.9,4-0.9c1.4,0,2.8,0.3,4,0.9V42.5c0-1.2-0.9-2.1-2.1-2.1H56V15.9l9.5,9.5
		c1.6,1.6,4.1,1.6,5.6,0c1.6-1.6,1.6-4.1,0-5.6L54.3,2.9c-1.2-1.2-3.3-1.2-4.5,0L32.9,19.8c-1.6,1.6-1.6,4.1,0,5.6
		c1.6,1.6,4.1,1.6,5.6,0l9.5-9.5v24.5H11c-1.2,0-2.1,0.9-2.1,2.1v27.3c1.2-0.5,2.6-0.9,4-0.9c1.4,0,2.8,0.3,4,0.9V50.4
		c0-1.2,0.9-2.1,2.1-2.1h29.1v21.4c1.2-0.5,2.6-0.9,4-0.9c1.4,0,2.8,0.3,4,0.9V48.3h29C86.2,48.3,87.2,49.3,87.2,50.4z"/>
</g>
</svg>
