<?xml version="1.0" encoding="utf-8"?>
<!-- Generator: Adobe Illustrator 21.1.0, SVG Export Plug-In . SVG Version: 6.00 Build 0)  -->
<svg version="1.1" id="Layer_1" xmlns="http://www.w3.org/2000/svg" xmlns:xlink="http://www.w3.org/1999/xlink" x="0px" y="0px"
	 viewBox="0 0 134 155" style="enable-background:new 0 0 134 155;" xml:space="preserve">
<style type="text/css">
	.st0{fill:#BBBDBF;}
</style>
<g>
	<path class="st0" d="M1.2,140.1h11.1v2.5H8.3v10.8h-3v-10.8h-4V140.1z"/>
	<path class="st0" d="M22.1,153.4l-2.1-3.8h-0.3h-2.8v3.8h-3v-13.3h5.8c1.7,0,3.1,0.4,4,1.2c0.9,0.8,1.4,1.9,1.4,3.4
		c0,1-0.2,1.9-0.6,2.6c-0.4,0.7-1,1.3-1.9,1.7l2.8,4.4H22.1z M16.9,147.1h2.8c0.8,0,1.5-0.2,1.9-0.6c0.4-0.4,0.7-1,0.7-1.7
		c0-0.7-0.2-1.3-0.7-1.7c-0.4-0.4-1.1-0.6-1.9-0.6h-2.8V147.1z"/>
	<path class="st0" d="M37.5,153.4l-1-2.6h-6.2l-1,2.6h-3.1l5.8-13.3h3.1l5.7,13.3H37.5z M31.3,148.4h4.2l-2.1-5.2L31.3,148.4z"/>
	<path class="st0" d="M51.3,140.1h2.8v13.3h-2.7l-6.4-8.6v8.6h-2.9v-13.3h2.7l6.5,8.6V140.1z"/>
	<path class="st0" d="M63.7,142.8c-0.8-0.2-1.4-0.4-2-0.4c-0.5,0-0.9,0.1-1.2,0.3c-0.3,0.2-0.5,0.5-0.5,0.8c0,0.5,0.2,0.8,0.7,1.1
		c0.4,0.2,1.1,0.5,2,0.8s1.7,0.5,2.3,0.8c0.6,0.3,1.1,0.7,1.5,1.2c0.4,0.5,0.6,1.2,0.6,2.1c0,0.8-0.2,1.6-0.7,2.2
		c-0.5,0.6-1.1,1.1-1.9,1.4c-0.8,0.3-1.7,0.5-2.7,0.5c-1.1,0-2.1-0.2-3.2-0.6c-1-0.4-1.9-0.9-2.7-1.6l1.2-2.5
		c0.7,0.6,1.4,1.1,2.3,1.5s1.7,0.6,2.4,0.6c0.6,0,1.1-0.1,1.5-0.3c0.3-0.2,0.5-0.6,0.5-1c0-0.3-0.1-0.6-0.4-0.8
		c-0.2-0.2-0.5-0.4-0.9-0.5s-0.9-0.3-1.5-0.5c-0.9-0.3-1.7-0.5-2.2-0.8c-0.6-0.3-1.1-0.6-1.5-1.2s-0.6-1.2-0.6-2.1
		c0-0.8,0.2-1.5,0.6-2.1c0.4-0.6,1-1.1,1.8-1.4c0.8-0.3,1.7-0.5,2.7-0.5c0.9,0,1.8,0.1,2.7,0.4s1.7,0.6,2.4,1.1l-1.2,2.5
		C65.2,143.4,64.4,143.1,63.7,142.8z"/>
	<path class="st0" d="M69.2,140.1h3v13.3h-3V140.1z"/>
	<path class="st0" d="M73.8,140.1h11.1v2.5h-4.1v10.8h-3v-10.8h-4V140.1z"/>
	<path class="st0" d="M86.6,140.1h3v13.3h-3V140.1z"/>
	<path class="st0" d="M102.3,140.8c1.1,0.6,1.9,1.4,2.6,2.5s0.9,2.2,0.9,3.5s-0.3,2.4-0.9,3.5c-0.6,1.1-1.5,1.9-2.6,2.5
		c-1.1,0.6-2.3,0.9-3.6,0.9s-2.5-0.3-3.6-0.9c-1.1-0.6-1.9-1.4-2.6-2.5s-0.9-2.2-0.9-3.5c0-1.3,0.3-2.4,0.9-3.5s1.5-1.9,2.6-2.5
		c1.1-0.6,2.3-0.9,3.6-0.9C100,139.9,101.2,140.2,102.3,140.8z M96.7,143.1c-0.6,0.4-1.1,0.9-1.5,1.5c-0.4,0.6-0.6,1.4-0.6,2.1
		c0,0.8,0.2,1.5,0.6,2.1c0.4,0.6,0.9,1.2,1.5,1.5c0.6,0.4,1.3,0.6,2,0.6s1.4-0.2,2-0.6c0.6-0.4,1.1-0.9,1.5-1.5s0.5-1.4,0.5-2.2
		c0-0.8-0.2-1.5-0.5-2.1c-0.4-0.6-0.8-1.2-1.5-1.5c-0.6-0.4-1.3-0.6-2-0.6S97.3,142.7,96.7,143.1z"/>
	<path class="st0" d="M117,140.1h2.8v13.3h-2.7l-6.4-8.6v8.6h-2.9v-13.3h2.7l6.5,8.6V140.1z"/>
	<path class="st0" d="M129.4,142.8c-0.8-0.2-1.4-0.4-2-0.4c-0.5,0-0.9,0.1-1.2,0.3c-0.3,0.2-0.5,0.5-0.5,0.8c0,0.5,0.2,0.8,0.7,1.1
		c0.4,0.2,1.1,0.5,2,0.8s1.7,0.5,2.3,0.8c0.6,0.3,1.1,0.7,1.5,1.2c0.4,0.5,0.6,1.2,0.6,2.1c0,0.8-0.2,1.6-0.7,2.2
		c-0.5,0.6-1.1,1.1-1.9,1.4c-0.8,0.3-1.7,0.5-2.7,0.5c-1.1,0-2.1-0.2-3.2-0.6c-1-0.4-1.9-0.9-2.7-1.6l1.2-2.5
		c0.7,0.6,1.4,1.1,2.3,1.5s1.7,0.6,2.4,0.6c0.6,0,1.1-0.1,1.5-0.3c0.3-0.2,0.5-0.6,0.5-1c0-0.3-0.1-0.6-0.4-0.8
		c-0.2-0.2-0.5-0.4-0.9-0.5c-0.4-0.1-0.9-0.3-1.5-0.5c-0.9-0.3-1.7-0.5-2.2-0.8c-0.6-0.3-1.1-0.6-1.5-1.2s-0.6-1.2-0.6-2.1
		c0-0.8,0.2-1.5,0.6-2.1s1-1.1,1.8-1.4c0.8-0.3,1.7-0.5,2.7-0.5c0.9,0,1.8,0.1,2.7,0.4s1.7,0.6,2.4,1.1l-1.2,2.5
		C130.9,143.4,130.1,143.1,129.4,142.8z"/>
</g>
<g>
	<g>
		<path class="st0" d="M77,81.8c-3.5,1.2-7.2,1.8-11,1.8c-0.1,0-0.2,0-0.3,0c-19.1,0-34.9-14.8-36.1-33.8C29,40,32.2,30.8,38.6,23.6
			v10c0,1.9,1.5,3.4,3.4,3.4s3.4-1.5,3.4-3.4V16.1c0-1.9-1.5-3.4-3.4-3.4H24.5c-1.9,0-3.4,1.5-3.4,3.4s1.5,3.4,3.4,3.4h8.5
			C25.6,28.2,22,39.2,22.9,50.8c1.7,22.3,20.5,39.7,42.9,39.7c0.1,0,0.2,0,0.3,0c4.5,0,9-0.8,13.2-2.2c0.9-0.3,1.6-0.9,2-1.8
			c0.4-0.9,0.4-1.9,0.1-2.7C80.7,82.1,78.8,81.3,77,81.8z"/>
		<path class="st0" d="M109.5,72.7h-8.5C108.4,64,112,53,111.1,41.4C109.5,19.1,90.7,1.7,68.3,1.7c-0.1,0-0.2,0-0.3,0
			c-4.5,0-9,0.8-13.2,2.2c-0.9,0.3-1.6,0.9-2,1.8c-0.4,0.9-0.4,1.9-0.1,2.7c0.7,1.7,2.5,2.5,4.3,2c3.5-1.2,7.2-1.8,11-1.8
			c0.1,0,0.2,0,0.3,0c19.1,0,34.9,14.8,36.1,33.8c0.6,9.8-2.5,19.1-8.9,26.3v-10c0-1.9-1.5-3.4-3.4-3.4c-1.9,0-3.4,1.5-3.4,3.4v17.5
			c0,1.9,1.5,3.4,3.4,3.4h17.5c1.9,0,3.4-1.5,3.4-3.4S111.4,72.7,109.5,72.7z"/>
	</g>
	<path class="st0" d="M67.2,79.4c-18.4,0-33.3-15-33.3-33.3c0-1.4,1.1-2.5,2.5-2.5s2.5,1.1,2.5,2.5c0,15.6,12.7,28.3,28.3,28.3
		c4.3,0,8.4-0.9,12.3-2.8c1.2-0.6,2.7-0.1,3.3,1.2c0.6,1.2,0.1,2.7-1.2,3.3C77.1,78.3,72.2,79.4,67.2,79.4z"/>
	<path class="st0" d="M98,48.6c-1.4,0-2.5-1.1-2.5-2.5c0-15.6-12.7-28.3-28.3-28.3c-4.4,0-8.7,1-12.6,2.9c-1.2,0.6-2.7,0.1-3.3-1.1
		s-0.1-2.7,1.1-3.3c4.6-2.3,9.6-3.5,14.8-3.5c18.4,0,33.3,15,33.3,33.3C100.5,47.5,99.4,48.6,98,48.6z"/>
</g>
</svg>
