<?xml version="1.0" encoding="utf-8"?>
<!-- Generator: Adobe Illustrator 21.0.0, SVG Export Plug-In . SVG Version: 6.00 Build 0)  -->
<svg version="1.1" id="Layer_1" xmlns="http://www.w3.org/2000/svg" xmlns:xlink="http://www.w3.org/1999/xlink" x="0px" y="0px"
	 viewBox="0 0 720 390.8" style="enable-background:new 0 0 720 390.8;" xml:space="preserve">
<style type="text/css">
	.Drop_x0020_Shadow{fill:none;}
	.Round_x0020_Corners_x0020_2_x0020_pt{fill:#FFFFFF;stroke:#231F20;stroke-miterlimit:10;}
	.Live_x0020_Reflect_x0020_X{fill:none;}
	.Bevel_x0020_Soft{fill:url(#SVGID_1_);}
	.Dusk{fill:#FFFFFF;}
	.Foliage_GS{fill:#FFDD00;}
	.Pompadour_GS{fill-rule:evenodd;clip-rule:evenodd;fill:#44ADE2;}
	.st0{fill:#404041;}
	.st1{fill:#808184;}
	.st2{fill:#7BC043;}
</style>
<linearGradient id="SVGID_1_" gradientUnits="userSpaceOnUse" x1="0" y1="-329.2188" x2="0.7071" y2="-328.5116">
	<stop  offset="0" style="stop-color:#DEDFE3"/>
	<stop  offset="0.1783" style="stop-color:#DADBDF"/>
	<stop  offset="0.3611" style="stop-color:#CECFD3"/>
	<stop  offset="0.546" style="stop-color:#B9BCBF"/>
	<stop  offset="0.7324" style="stop-color:#9CA0A2"/>
	<stop  offset="0.9181" style="stop-color:#787D7E"/>
	<stop  offset="1" style="stop-color:#656B6C"/>
</linearGradient>
<g>
	<g>
		<g>
			<path class="st0" d="M24.3,209.6h68.7v17.9H44.1V246h43v17.9h-43v19.2h49.6v17.9H24.3V209.6z"/>
			<path class="st0" d="M135.2,208.6h21.7l24,38.6l24-38.6h21.7v91.3h-19.8v-59.6l-25.7,39h-0.5L155,240.6v59.2h-19.8V208.6z"/>
			<path class="st0" d="M271.9,208.6h68.7v17.9h-48.9v18.5h43v17.9h-43V282h49.6v17.9h-69.4V208.6z"/>
			<path class="st0" d="M382.8,208.6h41.7c11.6,0,20.4,3.1,26.6,9.3c5.2,5.2,7.8,12.2,7.8,20.9v0.3c0,7.4-1.8,13.4-5.4,18.1
				c-3.6,4.7-8.3,8.1-14.2,10.2l22.3,32.6h-23.5l-19.6-29.2h-0.3h-15.5v29.2h-20.1V208.6z M423.2,252.9c5,0,8.8-1.2,11.4-3.5
				c2.7-2.3,4-5.5,4-9.4v-0.3c0-4.3-1.4-7.6-4.2-9.8c-2.8-2.2-6.7-3.3-11.6-3.3h-20v26.2H423.2z"/>
			<path class="st0" d="M544.5,301.4c-7.1,0-13.6-1.2-19.5-3.5c-5.9-2.3-10.9-5.6-15.1-9.8c-4.2-4.2-7.5-9.1-9.8-14.9
				c-2.3-5.7-3.5-12-3.5-18.8v-0.3c0-6.5,1.2-12.6,3.6-18.3c2.4-5.7,5.7-10.7,10-15c4.3-4.3,9.3-7.7,15.1-10.2
				c5.8-2.5,12.2-3.7,19.2-3.7c4.1,0,7.8,0.3,11.2,0.8c3.3,0.6,6.5,1.4,9.3,2.4c2.9,1,5.6,2.3,8.1,3.9c2.5,1.6,5,3.3,7.3,5.3
				l-12.7,15.3c-1.7-1.5-3.5-2.8-5.2-3.9c-1.7-1.1-3.5-2.1-5.4-2.9c-1.9-0.8-3.9-1.4-6.1-1.8c-2.2-0.4-4.6-0.7-7.2-0.7
				c-3.7,0-7.1,0.8-10.2,2.3c-3.2,1.5-6,3.6-8.3,6.1c-2.4,2.6-4.3,5.6-5.6,9c-1.4,3.4-2,7.1-2,11v0.3c0,4.2,0.7,8,2,11.6
				c1.3,3.5,3.3,6.6,5.7,9.2c2.5,2.6,5.4,4.6,8.7,6.1c3.3,1.4,7.1,2.2,11.2,2.2c7.5,0,13.8-1.8,18.9-5.5v-13.1h-20.2v-17.3h39.7V287
				c-4.7,4-10.3,7.4-16.8,10.2C560.3,300,552.9,301.4,544.5,301.4z"/>
			<path class="st0" d="M626.3,208.6H695v17.9h-48.9v18.5h43v17.9h-43V282h49.6v17.9h-69.4V208.6z"/>
		</g>
		<g>
			<path class="st1" d="M249.8,383.4L238,367.6h-11.6v15.8h-4.6v-40.6h17.5c8.9,0,14.7,4.8,14.7,12.1c0,6.8-4.6,10.7-11,11.9
				l12.5,16.6H249.8z M239,347h-12.5v16.5h12.5c6.1,0,10.4-3.1,10.4-8.4C249.4,350,245.5,347,239,347z"/>
			<path class="st1" d="M307.1,346.9h-24.8v13.9h22.2v4.2h-22.2v14.2h25.1v4.2h-29.7v-40.6h29.4V346.9z"/>
			<path class="st1" d="M348.2,383.4h-4.6V347h-13.6v-4.2h31.9v4.2h-13.6V383.4z"/>
			<path class="st1" d="M418.1,383.4h-4.9l-4.8-10.7h-22.1l-4.8,10.7h-4.7l18.5-40.9h4.3L418.1,383.4z M397.4,347.8l-9.3,20.7h18.5
				L397.4,347.8z"/>
			<path class="st1" d="M447.4,342.8v40.6h-4.6v-40.6H447.4z"/>
			<path class="st1" d="M477.8,342.8h4.6v36.4h22.9v4.2h-27.4V342.8z"/>
		</g>
		<g>
			<path class="st2" d="M467.4,138.9c-62.6,0-113.6-51-113.6-113.6V6.8h12.9v18.5c0,55.5,45.2,100.7,100.7,100.7V138.9z"/>
			<path class="st2" d="M467.4,112.1c-47.9,0-86.8-38.9-86.8-86.8h12.9c0,40.7,33.1,73.9,73.9,73.9V112.1z"/>
			<path class="st2" d="M467.4,165.7c-77.4,0-140.4-63-140.4-140.4H340c0,70.3,57.2,127.5,127.5,127.5V165.7z"/>
			<path class="st1" d="M253.2,138.9V126c55.5,0,100.7-45.2,100.7-100.7V6.8h12.9v18.5C366.8,87.9,315.8,138.9,253.2,138.9z"/>
			<path class="st1" d="M253.2,112.1V99.2c40.7,0,73.9-33.1,73.9-73.9H340C340,73.2,301,112.1,253.2,112.1z"/>
			<path class="st1" d="M253.2,165.7v-12.9c70.3,0,127.5-57.2,127.5-127.5h12.9C393.6,102.7,330.6,165.7,253.2,165.7z"/>
		</g>
	</g>
	<g>
		<path class="st1" d="M493.7,344h-2.9v-1.2h7.2v1.2H495v7.9h-1.3V344z M499.9,342.8h1.4l3.3,5l3.2-5h1.4v9.1h-1.3v-7l-3.3,4.9h-0.2
			l-3.2-4.9v7h-1.3V342.8z"/>
	</g>
</g>
</svg>
